# xmcd CD database file
# Copyright (C) 1997 Ti Kan
# 
# Track frame offsets:
#     150
#     17050
#     30635
#     46207
#     56055
#     73957
#     83822
#     99947
#     118482
#     132105
#     149722
#     170532
#     181665
#     193322
#     208127
#     226650
#     242860
#     260930
# 
# Disc length: 3777 seconds
# 
# Revision: 1
# Processed by: cddbd v1.4b41PL1 Copyright (c) Steve Scherf et al.
# Submitted via: DiscPlay 4.0.3
# 
DISCID=110ebf12
DTITLE=Joe Ely - No Bad Talk Or Loud Talk
DYEAR=1900
DGENRE=
TTITLE0=Honky Tonk Masquerade
TTITLE1=If You Were A Bluebird
TTITLE2=Dallas
TTITLE3=Fingernails
TTITLE4=Boxcars
TTITLE5=Tonight I Think I'm Gonna Go Downtown
TTITLE6=I Had My Hopes Up High
TTITLE7=Fools Fall In Love
TTITLE8=Treat Me Like A Saturday Night
TTITLE9=Maria
TTITLE10=Down On The Drag
TTITLE11=Hard Livin'
TTITLE12=Musta Notta Gotta Lotta
TTITLE13=Suckin' A Big Bottle Of Gin
TTITLE14=Johnny's Blues
TTITLE15=She Never Spoke Spanish To Me
TTITLE16=Because Of The Wind
TTITLE17=WestTexas Waltz
EXTD=
EXTT0=
EXTT1=
EXTT2=
EXTT3=
EXTT4=
EXTT5=
EXTT6=
EXTT7=
EXTT8=
EXTT9=
EXTT10=
EXTT11=
EXTT12=
EXTT13=
EXTT14=
EXTT15=
EXTT16=
EXTT17=
PLAYORDER=
